# xmcd
#
# Track frame offsets:
#        150
#        17152
#        34687
#        64275
#        87077
#        107730
#        129590
#        148295
#        174127
#        191822
#        213032
#        236560
#        255615
#        274832
#        289862
#
# Disc length: 4123 seconds
#
# Revision: 0
# Processed by: cddbd v1.5.1PL0 Copyright (c) Steve Scherf et al.
# Submitted via: ExactAudioCopy v0.95a5
#
DISCID=db10190f
DTITLE=Various Artist - QUIET STORM
DYEAR=1990
DGENRE=R&B
TTITLE0=(pop,pop,pop,pop)GOES MY MIND/Levert
TTITLE1=THAT'S WHAT LOVE IS/Miki Howard
TTITLE2=OH LOVER/Chuckii Booker
TTITLE3=HAVE MERCY/The System
TTITLE4=THIS LOVE'S ON ME/Paul Jackson,Jr
TTITLE5=FEELING INSIDE/Gerald Albright
TTITLE6=PERFECT COMBINATION/Stacy Lattisaw and Johnny Gill
TTITLE7=BECAUSE OF YOU/Johnny Gill
TTITLE8=MY FOREVER LOVE/Levert
TTITLE9=SPREAD MY WINGS/Troop
TTITLE10=REAL LOVE/Skyy
TTITLE11=TURNED AWAY/Chuckii Booker
TTITLE12=AIN'T NUTHIN' IN THE WORLD/Miki Howard
TTITLE13=WRAPPED AROUND YOUR FINGER/Geoffrey Williams
TTITLE14=IN THE MOOD/Gerald Albright
EXTD=
EXTT0=
EXTT1=
EXTT2=
EXTT3=
EXTT4=
EXTT5=
EXTT6=
EXTT7=
EXTT8=
EXTT9=
EXTT10=
EXTT11=
EXTT12=
EXTT13=
EXTT14=
PLAYORDER=
